<?xml version="1.0" encoding="UTF-8"?>
<svg width="1024px" height="1024px" viewBox="0 0 1024 1024" version="1.1" xmlns="http://www.w3.org/2000/svg" xmlns:xlink="http://www.w3.org/1999/xlink">
    <!-- Generator: Sketch 64 (93537) - https://sketch.com -->
    <title>shopping_logo_white</title>
    <desc>Created with Sketch.</desc>
    <defs>
        <linearGradient x1="50%" y1="0%" x2="50%" y2="100%" id="linearGradient-1">
            <stop stop-color="#30E0F9" offset="0%"></stop>
            <stop stop-color="#30A7F9" offset="100%"></stop>
        </linearGradient>
        <linearGradient x1="82.4121673%" y1="74.5339887%" x2="82.4121673%" y2="17.0264737%" id="linearGradient-2">
            <stop stop-color="#DE0A0A" offset="0%"></stop>
            <stop stop-color="#FF6A3E" offset="100%"></stop>
        </linearGradient>
        <path d="M203.496169,146.916548 L646.659684,149.759434 C679.237134,149.968418 706.100391,175.346002 708.160473,207.858922 L733.738069,611.533177 C735.904141,645.718861 709.947117,675.187782 675.761434,677.353854 C673.79601,677.478387 671.82577,677.509239 669.85741,677.446306 L425.727259,669.640886 C404.053057,668.94791 384.314697,656.98525 373.671167,638.091692 L149.060207,239.379972 C132.247602,209.535556 142.811971,171.712567 172.656387,154.899962 C182.06592,149.599179 192.696501,146.847268 203.496169,146.916548 Z" id="path-3"></path>
        <linearGradient x1="67.4224078%" y1="23.4050767%" x2="32.5775922%" y2="76.5949233%" id="linearGradient-4">
            <stop stop-color="#30E0F9" offset="0%"></stop>
            <stop stop-color="#30A7F9" offset="100%"></stop>
        </linearGradient>
        <linearGradient x1="23.985587%" y1="31.6445846%" x2="5.51791497%" y2="59.8350808%" id="linearGradient-5">
            <stop stop-color="#FF9115" offset="0%"></stop>
            <stop stop-color="#EA530F" offset="100%"></stop>
        </linearGradient>
        <path d="M778.98977,202.968163 L377.80351,40.8783923 C347.298745,28.553667 312.47822,42.1923835 298.459073,71.9565076 L96.2350084,501.299466 C81.6390008,532.288326 94.9280328,569.242162 125.916892,583.838169 C126.481959,584.104321 127.051015,584.361921 127.623864,584.610882 L230.453976,629.300999 C249.160087,637.430703 270.667543,635.84378 287.977878,625.056612 L788.55809,313.113306 C817.629597,294.997005 826.510545,256.743729 808.394244,227.672223 C801.453282,216.533954 791.158081,207.88448 778.98977,202.968163 Z" id="path-6"></path>
        <linearGradient x1="50%" y1="0%" x2="50%" y2="100%" id="linearGradient-7">
            <stop stop-color="#FFE030" offset="0%"></stop>
            <stop stop-color="#F3961F" offset="100%"></stop>
        </linearGradient>
        <path d="M96.2226992,167 L584.112676,167 C616.975276,167 644.133676,192.632458 646.031904,225.440189 L676.539501,752.713353 C678.518114,786.910399 652.399914,816.236564 618.202868,818.215178 C617.009917,818.284201 615.815219,818.318734 614.620272,818.318734 L496.613621,818.318734 L65.7151027,818.318734 C31.4608643,818.318734 3.69231756,790.550187 3.69231756,756.295949 C3.69231756,755.101002 3.72685079,753.906305 3.79587401,752.713353 L34.3034705,225.440189 C36.2016991,192.632458 63.3600989,167 96.2226992,167 Z" id="path-8"></path>
        <path d="M102.41102,-19.0962648 C106.16179,-32.3816663 119.972336,-40.111012 133.257738,-36.3602415 C195.849176,-18.6892575 239.871576,38.1296761 239.871576,103.596462 C239.871576,184.034658 173.993252,249.119039 92.8787321,249.119039 C79.0740165,249.119039 67.8830834,237.928106 67.8830834,224.12339 C67.8830834,210.541331 78.7159299,199.489419 92.2128379,199.136439 L92.8787321,199.127742 C146.518593,199.127742 189.880278,156.288635 189.880278,103.596462 C189.880278,61.1720401 161.525336,24.1505726 120.909515,12.1077223 L119.674997,11.7504534 C106.389595,7.9996829 98.6602494,-5.81086322 102.41102,-19.0962648 Z" id="path-9"></path>
    </defs>
    <g id="shopping_logo_white" stroke="none" stroke-width="1" fill="none" fill-rule="evenodd">
        <g id="编组-10" transform="translate(37.000000, 99.000000)">
            <g id="编组-23" transform="translate(0.231109, 0.343055)">
                <g id="编组-8" transform="translate(0.000000, 133.392513)">
                    <g id="矩形" transform="translate(417.318975, 412.928693) scale(-1, 1) rotate(-42.000000) translate(-417.318975, -412.928693) ">
                        <use fill="url(#linearGradient-1)" xlink:href="#path-3"></use>
                        <use fill="url(#linearGradient-2)" xlink:href="#path-3"></use>
                        <use fill="#E73538" xlink:href="#path-3"></use>
                    </g>
                    <g id="矩形">
                        <use fill="url(#linearGradient-4)" xlink:href="#path-6"></use>
                        <use fill="url(#linearGradient-5)" xlink:href="#path-6"></use>
                        <use fill="#FF754A" xlink:href="#path-6"></use>
                    </g>
                </g>
                <g id="编组-27" transform="translate(237.754010, -0.000000)">
                    <g id="编组-80" transform="translate(173.663798, 0.000000)" stroke="#FFAB2E" stroke-width="58.2361309">
                        <path d="M238.289227,101.475658 L95.1998577,101.475658 C93.6907513,101.475658 92.1817562,101.501581 90.6735402,101.553413 C54.3040539,102.803321 21.8842892,118.676548 -1.13062701,143.329669 C-24.1455432,167.98279 -37.7556108,201.415805 -36.5057027,237.785291 C-35.1801175,276.35681 -18.6910649,310.934272 7.11516399,335.868855 C32.9213928,360.803438 68.0447978,376.095141 106.639088,376.095141 L238.289227,376.095141 C276.206265,376.095141 310.5337,360.726225 335.381876,335.878049 C360.230052,311.029873 375.598968,276.702438 375.598968,238.7854 C375.598968,200.868362 360.230052,166.540926 335.381876,141.692751 C310.5337,116.844575 276.206265,101.475658 238.289227,101.475658 Z" id="矩形" transform="translate(166.695415, 238.785400) scale(-1, -1) rotate(90.000000) translate(-166.695415, -238.785400) "></path>
                    </g>
                    <g id="矩形">
                        <use fill="url(#linearGradient-7)" xlink:href="#path-8"></use>
                        <use fill="#F7C537" xlink:href="#path-8"></use>
                    </g>
                </g>
            </g>
            <g id="编组-43" transform="translate(430.300300, 378.208731)">
                <mask id="mask-10" fill="white">
                    <use xlink:href="#path-9"></use>
                </mask>
                <use id="蒙版" fill="#FFFFFF" fill-rule="nonzero" transform="translate(153.877330, 105.906050) rotate(82.000000) translate(-153.877330, -105.906050) " xlink:href="#path-9"></use>
                <path d="M267.147873,87.1700222 C280.952588,87.1700222 292.143522,75.9712467 292.143522,62.1665311 C292.143522,48.3618155 280.952588,37.1787247 267.147873,37.1787247 C253.343157,37.1787247 242.152224,48.3696578 242.152224,62.1743734 C242.152224,75.979089 253.343157,87.1700222 267.147873,87.1700222 Z" id="椭圆形" fill="#FFAB2E" mask="url(#mask-10)"></path>
            </g>
        </g>
    </g>
</svg>